<svg width="38" height="50" viewBox="0 0 38 50" fill="none" xmlns="http://www.w3.org/2000/svg">
<path d="M32.2413 30.2186C33.7807 35.085 34.9355 40.0348 35.6741 45.1182C35.7077 45.351 35.6909 45.5674 35.6347 45.7656C35.8943 46.048 36.0157 46.4352 36.0055 46.8298C36.8577 47.0344 36.7373 48.4944 35.7167 48.636C34.7733 48.7668 33.8111 48.7086 32.8481 48.5256C32.0685 48.5734 31.2901 48.6166 30.5121 48.6506C30.2625 48.7614 29.9757 48.8254 29.6461 48.8092C29.1711 48.7858 28.6967 48.7618 28.2215 48.7384C21.8609 48.9056 15.5574 48.6024 9.30294 47.7974C7.18064 47.5246 7.60306 44.524 9.80188 44.6306C11.1559 44.696 12.5096 44.7616 13.8633 44.8264C14.0127 44.7868 14.1676 44.7566 14.3366 44.7492C17.7426 44.599 21.1377 44.5384 24.5285 44.5478C23.9107 44.1336 23.3237 43.7298 22.7851 43.3634C18.3712 40.3618 14.5115 36.6662 11.3017 32.5502C4.69722 24.0828 0.987605 13.763 0.654419 2.94796C0.592799 0.943727 3.88434 0.288343 4.0496 2.34088C4.82774 12.0038 10.3408 19.8174 16.4182 27.0384C20.5045 31.8942 24.6657 36.7948 29.4973 41.0224C29.2855 37.768 29.0737 34.5142 28.8611 31.2596C28.7493 29.5408 31.6645 28.3942 32.2413 30.2186ZM12.8603 28.118C11.8988 26.9582 10.9612 25.7784 10.0531 24.5788C10.9085 26.1466 11.8526 27.6736 12.8834 29.1546C15.6244 33.0918 18.9258 36.649 22.7055 39.7308C23.5591 40.427 24.5815 41.2836 25.7043 42.157C21.0063 37.846 16.8766 32.9618 12.8603 28.118Z" fill="url(#paint0_linear_862_12)"/>
<defs>
<linearGradient id="paint0_linear_862_12" x1="18.6127" y1="1.08691" x2="18.6127" y2="48.8117" gradientUnits="userSpaceOnUse">
<stop stop-color="#006400"/>
<stop offset="1" stop-color="#00FF00"/>
</linearGradient>
</defs>
</svg>
