<svg width="38" height="50" viewBox="0 0 38 50" fill="none" xmlns="http://www.w3.org/2000/svg">
<path d="M5.75868 30.2186C4.21928 35.085 3.06448 40.0348 2.32588 45.1182C2.29228 45.351 2.30908 45.5674 2.36528 45.7656C2.10568 46.048 1.98428 46.4352 1.99448 46.8298C1.14228 47.0344 1.26268 48.4944 2.28328 48.636C3.22668 48.7668 4.18888 48.7086 5.15188 48.5256C5.93148 48.5734 6.70988 48.6166 7.48788 48.6506C7.73748 48.7614 8.02428 48.8254 8.35388 48.8092C8.82888 48.7858 9.30328 48.7618 9.77848 48.7384C16.1391 48.9056 22.4426 48.6024 28.6971 47.7974C30.8194 47.5246 30.3969 44.524 28.1981 44.6306C26.8441 44.696 25.4904 44.7616 24.1367 44.8264C23.9873 44.7868 23.8324 44.7566 23.6634 44.7492C20.2574 44.599 16.8623 44.5384 13.4715 44.5478C14.0893 44.1336 14.6763 43.7298 15.2149 43.3634C19.6288 40.3618 23.4885 36.6662 26.6983 32.5502C33.3028 24.0828 37.0124 13.763 37.3456 2.94796C37.4072 0.943727 34.1157 0.288343 33.9504 2.34088C33.1723 12.0038 27.6592 19.8174 21.5818 27.0384C17.4955 31.8942 13.3343 36.7948 8.50268 41.0224C8.71448 37.768 8.92628 34.5142 9.13888 31.2596C9.25068 29.5408 6.33548 28.3942 5.75868 30.2186ZM25.1397 28.118C26.1012 26.9582 27.0388 25.7784 27.9469 24.5788C27.0915 26.1466 26.1474 27.6736 25.1166 29.1546C22.3756 33.0918 19.0742 36.649 15.2945 39.7308C14.4409 40.427 13.4185 41.2836 12.2957 42.157C16.9937 37.846 21.1234 32.9618 25.1397 28.118Z" fill="url(#paint0_linear_863_14)"/>
<defs>
<linearGradient id="paint0_linear_863_14" x1="19.3873" y1="1.08691" x2="19.3873" y2="48.8117" gradientUnits="userSpaceOnUse">
<stop stop-color="#006400"/>
<stop offset="1" stop-color="#00FF00"/>
</linearGradient>
</defs>
</svg>
